<svg width="40" height="40" viewBox="0 0 40 40" fill="none" xmlns="http://www.w3.org/2000/svg">
<g clip-path="url(#clip0_2282_23953)">
<rect x="4" y="4" width="32" height="32" rx="16" fill="#1F1F1F"/>
<rect width="40" height="40" transform="translate(2)" fill="#61D800"/>
<path fill-rule="evenodd" clip-rule="evenodd" d="M26.3779 18.3936C26.4594 18.7562 26.502 19.1508 26.502 19.5762V25.6963C26.5019 26.676 26.3321 27.4964 25.9922 28.1562C25.6722 28.7959 25.2224 29.3067 24.6426 29.6865C24.0826 30.0464 23.422 30.3059 22.6621 30.4658C21.9223 30.6258 21.1225 30.706 20.2627 30.7061C19.9028 30.7061 19.5425 30.6958 19.1826 30.6758C18.8428 30.6558 18.4927 30.6362 18.1328 30.6162C17.7928 30.5962 17.442 30.5664 17.082 30.5264C16.7422 30.5064 16.3921 30.4765 16.0322 30.4365C15.6723 30.4165 15.3121 30.396 14.9521 30.376V26.7686C15.2154 26.8699 15.5044 26.9331 15.8203 26.9453C16.5969 26.9751 17.4177 26.6953 18.2822 26.1768V27.5264C18.2846 27.5267 18.3548 27.536 18.4922 27.5557C18.6322 27.5557 18.7927 27.5659 18.9727 27.5859C19.1725 27.5859 19.3724 27.5962 19.5723 27.6162H20.0527C20.7524 27.6162 21.3125 27.5565 21.7324 27.4365C22.1521 27.3166 22.4621 27.1559 22.6621 26.9561C22.882 26.7362 23.022 26.4756 23.082 26.1758C23.162 25.856 23.2021 25.5057 23.2021 25.126V24.6006L23.2539 24.5938V21.4834C24.5349 20.0182 25.5625 19.0222 26.3779 18.3936Z" fill="white"/>
<path d="M18.2822 15.8555C18.7022 15.6755 19.1127 15.5253 19.5127 15.4053C19.9126 15.2853 20.313 15.205 20.7129 15.165C21.1327 15.1051 21.5725 15.0752 22.0322 15.0752C22.5922 15.0752 23.1324 15.1648 23.6523 15.3447C24.1923 15.5247 24.6728 15.8055 25.0928 16.1855C25.2661 16.3274 25.4231 16.487 25.5654 16.6631C25.4599 16.7382 25.3536 16.8166 25.2471 16.8984C24.548 17.4358 23.7555 18.1712 22.8564 19.127C22.7537 19.0144 22.6304 18.9228 22.4824 18.8555C22.2824 18.7355 22.0623 18.6552 21.8223 18.6152C21.5824 18.5553 21.3527 18.5254 21.1328 18.5254C20.673 18.5254 20.2427 18.5749 19.8428 18.6748C19.4428 18.7548 19.1023 18.8546 18.8223 18.9746C18.5623 19.0746 18.3822 19.1651 18.2822 19.2451V23.8906C18.1323 24.0104 17.9884 24.1213 17.8486 24.2217C17.021 24.816 16.4435 25.0231 16.0674 25.0625H15.8076C15.555 25.0298 15.3324 24.8899 15.1104 24.5439C15.0548 24.4573 15.0028 24.3601 14.9521 24.2539V9.375H18.2822V15.8555Z" fill="white"/>
</g>
<defs>
<clipPath id="clip0_2282_23953">
<rect x="4" y="4" width="32" height="32" rx="16" fill="white"/>
</clipPath>
</defs>
</svg>
