<svg width="20" height="20" viewBox="0 0 20 20" fill="none" xmlns="http://www.w3.org/2000/svg">
<mask id="mask0_1398_15396" style="mask-type:alpha" maskUnits="userSpaceOnUse" x="0" y="0" width="20" height="20">
<rect width="20" height="20" fill="#D9D9D9"/>
</mask>
<g mask="url(#mask0_1398_15396)">
<path d="M9.97752 15.0004C10.9636 15.0004 11.8699 14.74 12.6963 14.2192C13.5227 13.6984 14.1372 12.9865 14.54 12.0838C14.6234 11.8893 14.6234 11.6949 14.54 11.5004C14.4567 11.306 14.3109 11.1671 14.1025 11.0838C13.8942 10.9865 13.6754 10.9831 13.4463 11.0734C13.2171 11.1636 13.047 11.3268 12.9359 11.5629C12.6442 12.1046 12.2345 12.5352 11.7067 12.8546C11.1789 13.174 10.6025 13.3338 9.97752 13.3338C9.06085 13.3338 8.27613 13.0074 7.62335 12.3546C6.97057 11.7018 6.64418 10.9171 6.64418 10.0004C6.64418 9.37543 6.80738 8.80252 7.13377 8.28168C7.46016 7.76085 7.89418 7.3546 8.43585 7.06293C8.65807 6.95182 8.81085 6.78168 8.89418 6.55252C8.97752 6.32335 8.97057 6.1046 8.87335 5.89627C8.77613 5.68793 8.63377 5.5421 8.44627 5.45877C8.25877 5.37543 8.0678 5.37543 7.87335 5.45877C6.99835 5.86155 6.29696 6.47613 5.76918 7.30252C5.24141 8.12891 4.97752 9.02821 4.97752 10.0004C4.97752 11.3893 5.46363 12.5699 6.43585 13.5421C7.40807 14.5143 8.58863 15.0004 9.97752 15.0004ZM9.97752 18.3338C12.172 18.3338 14.0747 17.5907 15.6859 16.1046C17.297 14.6185 18.1789 12.7921 18.3317 10.6254C18.3456 10.4032 18.2796 10.2088 18.1338 10.0421C17.9879 9.87543 17.797 9.78516 17.5609 9.77127C17.3247 9.75738 17.1129 9.8303 16.9254 9.99002C16.7379 10.1497 16.6303 10.3546 16.6025 10.6046C16.3803 12.3268 15.6338 13.7678 14.3629 14.9275C13.0921 16.0872 11.6303 16.6671 9.97752 16.6671C8.11641 16.6671 6.54002 16.0213 5.24835 14.7296C3.95668 13.4379 3.31085 11.8615 3.31085 10.0004C3.31085 8.26432 3.88724 6.7678 5.04002 5.51085C6.19279 4.25391 7.64418 3.5421 9.39418 3.37543C9.64418 3.34766 9.84905 3.24349 10.0088 3.06293C10.1685 2.88238 10.2414 2.67405 10.2275 2.43793C10.2136 2.20182 10.1234 2.00738 9.95668 1.8546C9.79002 1.70182 9.59557 1.63238 9.37335 1.64627C8.29002 1.71571 7.2796 1.98655 6.3421 2.45877C5.4046 2.93099 4.58863 3.54557 3.89418 4.30252C3.19974 5.05946 2.65113 5.92752 2.24835 6.90668C1.84557 7.88585 1.64418 8.9171 1.64418 10.0004C1.64418 11.1532 1.86293 12.2365 2.30043 13.2504C2.73793 14.2643 3.33168 15.1463 4.08168 15.8963C4.83168 16.6463 5.71363 17.24 6.72752 17.6775C7.74141 18.115 8.82474 18.3338 9.97752 18.3338ZM12.0192 9.58377L14.7692 6.8546L15.3942 8.75043C15.4636 8.94488 15.5956 9.03863 15.79 9.03168C15.9845 9.02474 16.1164 8.92405 16.1859 8.7296L18.0817 2.4171C18.1372 2.25043 18.106 2.10807 17.9879 1.99002C17.8699 1.87196 17.7275 1.84071 17.5609 1.89627L11.2484 3.7921C11.0539 3.86155 10.9532 3.99349 10.9463 4.18793C10.9393 4.38238 11.0331 4.51432 11.2275 4.58377L13.1234 5.20877L10.3734 7.95877C10.1372 8.19488 10.0192 8.46571 10.0192 8.77127C10.0192 9.07682 10.1372 9.34766 10.3734 9.58377C10.6095 9.81988 10.8838 9.93793 11.1963 9.93793C11.5088 9.93793 11.7831 9.81988 12.0192 9.58377Z" fill="#DC3545"/>
</g>
</svg>
