<svg width="20" height="20" viewBox="0 0 20 20" fill="none" xmlns="http://www.w3.org/2000/svg">
<mask id="mask0_1398_15466" style="mask-type:alpha" maskUnits="userSpaceOnUse" x="0" y="0" width="20" height="20">
<rect width="20" height="20" fill="#D9D9D9"/>
</mask>
<g mask="url(#mask0_1398_15466)">
<path d="M3.6875 16.4792C2.57639 15.8542 1.68403 14.9653 1.01042 13.8125C0.336806 12.6597 0 11.3889 0 10C0 8.61111 0.34375 7.33681 1.03125 6.17708C1.71875 5.01736 2.65278 4.10417 3.83333 3.4375C4.11111 3.28472 4.375 3.29861 4.625 3.47917C4.875 3.65972 5 3.90972 5 4.22917C5 4.36806 4.95833 4.51389 4.875 4.66667C4.79167 4.81944 4.68056 4.93056 4.54167 5C3.65278 5.52778 2.95139 6.23264 2.4375 7.11458C1.92361 7.99653 1.66667 8.95833 1.66667 10C1.66667 11.0417 1.92361 12.0035 2.4375 12.8854C2.95139 13.7674 3.65278 14.4722 4.54167 15C4.68056 15.0694 4.79167 15.1806 4.875 15.3333C4.95833 15.4861 5 15.6389 5 15.7917C5 16.1111 4.86806 16.3542 4.60417 16.5208C4.34028 16.6875 4.03472 16.6736 3.6875 16.4792ZM12.5 17.5C11.4583 17.5 10.4826 17.3021 9.57292 16.9062C8.66319 16.5104 7.87153 15.9757 7.19792 15.3021C6.52431 14.6285 5.98958 13.8368 5.59375 12.9271C5.19792 12.0174 5 11.0417 5 10C5 8.95833 5.19792 7.98264 5.59375 7.07292C5.98958 6.16319 6.52431 5.37153 7.19792 4.69792C7.87153 4.02431 8.66319 3.48958 9.57292 3.09375C10.4826 2.69792 11.4583 2.5 12.5 2.5C13.5417 2.5 14.5174 2.69792 15.4271 3.09375C16.3368 3.48958 17.1285 4.02431 17.8021 4.69792C18.4757 5.37153 19.0104 6.16319 19.4062 7.07292C19.8021 7.98264 20 8.95833 20 10C20 11.0417 19.8021 12.0174 19.4062 12.9271C19.0104 13.8368 18.4757 14.6285 17.8021 15.3021C17.1285 15.9757 16.3368 16.5104 15.4271 16.9062C14.5174 17.3021 13.5417 17.5 12.5 17.5ZM12.5 13.3333C12.7361 13.3333 12.934 13.2535 13.0938 13.0938C13.2535 12.934 13.3333 12.7361 13.3333 12.5V10.8333H15C15.2361 10.8333 15.434 10.7535 15.5937 10.5938C15.7535 10.434 15.8333 10.2361 15.8333 10C15.8333 9.76389 15.7535 9.56597 15.5937 9.40625C15.434 9.24653 15.2361 9.16667 15 9.16667H13.3333V7.5C13.3333 7.26389 13.2535 7.06597 13.0938 6.90625C12.934 6.74653 12.7361 6.66667 12.5 6.66667C12.2639 6.66667 12.066 6.74653 11.9062 6.90625C11.7465 7.06597 11.6667 7.26389 11.6667 7.5V9.16667H10C9.76389 9.16667 9.56597 9.24653 9.40625 9.40625C9.24653 9.56597 9.16667 9.76389 9.16667 10C9.16667 10.2361 9.24653 10.434 9.40625 10.5938C9.56597 10.7535 9.76389 10.8333 10 10.8333H11.6667V12.5C11.6667 12.7361 11.7465 12.934 11.9062 13.0938C12.066 13.2535 12.2639 13.3333 12.5 13.3333Z" fill="#DC3545"/>
</g>
</svg>
