<svg width="32" height="32" viewBox="0 0 32 32" fill="none" xmlns="http://www.w3.org/2000/svg">
<path opacity="0.4" d="M23.9965 9.547C23.9165 9.53366 23.8232 9.53366 23.7432 9.547C21.9032 9.48033 20.4365 7.97366 20.4365 6.10699C20.4365 4.20033 21.9699 2.66699 23.8765 2.66699C25.7832 2.66699 27.3165 4.21366 27.3165 6.10699C27.3032 7.97366 25.8365 9.48033 23.9965 9.547Z" stroke="#005DFF" stroke-width="2" stroke-linecap="round" stroke-linejoin="round"/>
<path opacity="0.4" d="M22.623 19.2529C24.4497 19.5596 26.463 19.2396 27.8763 18.2929C29.7563 17.0396 29.7563 14.9862 27.8763 13.7329C26.4497 12.7862 24.4097 12.4662 22.583 12.7862" stroke="#005DFF" stroke-width="2" stroke-linecap="round" stroke-linejoin="round"/>
<path opacity="0.4" d="M7.95672 9.547C8.03672 9.53366 8.13005 9.53366 8.21005 9.547C10.0501 9.48033 11.5167 7.97366 11.5167 6.10699C11.5167 4.20033 9.98339 2.66699 8.07672 2.66699C6.17005 2.66699 4.63672 4.21366 4.63672 6.10699C4.65005 7.97366 6.11672 9.48033 7.95672 9.547Z" stroke="#005DFF" stroke-width="2" stroke-linecap="round" stroke-linejoin="round"/>
<path opacity="0.4" d="M9.33032 19.2529C7.50366 19.5596 5.49033 19.2396 4.07699 18.2929C2.19699 17.0396 2.19699 14.9862 4.07699 13.7329C5.50366 12.7862 7.54366 12.4662 9.37032 12.7862" stroke="#005DFF" stroke-width="2" stroke-linecap="round" stroke-linejoin="round"/>
<path d="M16.0004 19.507C15.9204 19.4936 15.8271 19.4936 15.7471 19.507C13.9071 19.4403 12.4404 17.9336 12.4404 16.067C12.4404 14.1603 13.9738 12.627 15.8804 12.627C17.7871 12.627 19.3204 14.1736 19.3204 16.067C19.3071 17.9336 17.8404 19.4536 16.0004 19.507Z" stroke="#005DFF" stroke-width="2" stroke-linecap="round" stroke-linejoin="round"/>
<path d="M12.12 23.7065C10.24 24.9598 10.24 27.0131 12.12 28.2665C14.2533 29.6931 17.7466 29.6931 19.88 28.2665C21.76 27.0131 21.76 24.9598 19.88 23.7065C17.76 22.2932 14.2533 22.2932 12.12 23.7065Z" stroke="#005DFF" stroke-width="2" stroke-linecap="round" stroke-linejoin="round"/>
</svg>
