<svg width="32" height="32" viewBox="0 0 32 32" fill="none" xmlns="http://www.w3.org/2000/svg">
<path d="M23.7998 17.4004C23.7998 14.3066 22.0422 13.1456 20.2568 13.0127L19.9004 13C18.2006 13 17.0004 14.0998 16.7002 14.7998V13.2998H13.5V24H16.9004V18.2998C16.9005 16.7999 17.9004 16 18.9004 16C19.9002 16.0001 20.5996 16.5004 20.5996 18.2002V24H23.7998V17.4004ZM11.5996 24V13.2998H8.2002V24H11.5996ZM11.7998 9.90039C11.7998 8.8691 11.0969 8.10066 10.1025 8.00879L9.90039 8C8.90039 8 8 8.80039 8 9.90039L8.00879 10.1025C8.10066 11.0969 8.8691 11.7998 9.90039 11.7998C10.9315 11.7996 11.6991 11.0967 11.791 10.1025L11.7998 9.90039ZM13.7998 9.90039C13.7998 10.3973 13.7134 10.8682 13.5547 11.2998H18.0527C18.6101 11.1143 19.2297 11 19.9004 11C21.213 11.0001 22.7251 11.3807 23.9258 12.5C25.1589 13.6496 25.7998 15.3317 25.7998 17.4004V24H24V26H6.2002V11.2998H6.24609C6.0873 10.8682 6.00005 10.3974 6 9.90039C6 7.62789 7.865 6 9.90039 6C12.1048 6.0002 13.7998 7.69595 13.7998 9.90039Z" fill="#111111"/>
<rect x="23.7998" y="24" width="2" height="2" fill="#111111"/>
</svg>
